<?xml version="1.0" standalone="no"?>
<!DOCTYPE svg PUBLIC "-//W3C//DTD SVG 20010904//EN"
 "http://www.w3.org/TR/2001/REC-SVG-20010904/DTD/svg10.dtd">
<svg version="1.0" xmlns="http://www.w3.org/2000/svg"
 width="512.000000pt" height="512.000000pt" viewBox="0 0 512.000000 512.000000"
 preserveAspectRatio="xMidYMid meet">

<g transform="translate(0.000000,512.000000) scale(0.100000,-0.100000)"
fill="blue" stroke="none">
<path d="M2018 4577 c-483 -165 -876 -302 -875 -303 2 -2 398 -138 880 -303
l878 -300 572 195 c1091 373 1180 404 1184 408 2 2 -20 12 -49 21 -29 10 -426
146 -883 301 -456 156 -830 283 -830 283 0 -1 -395 -137 -877 -302z"/>
<path d="M505 4360 c-245 -41 -422 -262 -402 -505 5 -73 401 -1387 456 -1515
101 -236 300 -445 539 -564 l52 -26 0 -290 0 -289 633 -3 c613 -4 634 -4 710
-26 132 -37 230 -94 327 -192 l84 -86 86 86 c95 96 188 151 320 191 74 23 84
23 714 27 l639 3 -6 183 c-4 101 -13 214 -21 252 -69 323 -283 573 -643 753
-105 52 -315 129 -414 151 l-57 13 -60 -37 c-128 -78 -282 -127 -454 -146
-256 -28 -543 49 -747 202 -45 34 -68 43 -149 59 -344 67 -607 248 -781 537
-70 117 -100 199 -210 583 -55 190 -109 367 -122 393 -28 61 -96 136 -159 176
-92 59 -229 88 -335 70z"/>
<path d="M4593 4123 l-43 -15 0 -348 c0 -387 0 -384 64 -378 54 5 56 17 56
406 0 396 7 365 -77 335z"/>
<path d="M1912 3658 l3 -221 45 -24 c57 -29 212 -79 304 -99 486 -102 1151
-72 1506 68 132 52 120 25 120 278 0 121 -2 220 -4 220 -2 0 -221 -74 -486
-165 -265 -91 -489 -165 -498 -165 -8 0 -233 74 -499 165 -266 91 -486 165
-489 165 -2 0 -3 -100 -2 -222z"/>
<path d="M1935 3264 c23 -101 43 -160 81 -243 126 -269 358 -461 653 -538 131
-34 324 -36 454 -5 301 74 547 275 674 550 30 65 86 252 78 260 -1 2 -48 -13
-102 -32 -505 -175 -1357 -162 -1826 29 -16 7 -17 4 -12 -21z"/>
<path d="M990 865 l0 -185 925 0 925 0 0 23 c0 35 -69 135 -130 190 -61 55
-157 107 -246 133 -53 16 -125 18 -766 21 l-708 4 0 -186z"/>
<path d="M3419 1039 c-73 -10 -171 -44 -227 -76 -66 -39 -151 -121 -194 -187
-69 -107 -170 -96 892 -96 l930 0 0 185 0 185 -672 -1 c-370 -1 -698 -5 -729
-10z"/>
<path d="M790 400 l0 -160 1025 0 1025 0 0 160 0 160 -1025 0 -1025 0 0 -160z"/>
<path d="M2964 547 c-2 -7 -3 -78 -2 -157 l3 -145 1028 -3 1027 -2 0 160 0
160 -1025 0 c-831 0 -1027 -2 -1031 -13z"/>
</g>
</svg>
